<?xml version="1.0" standalone="no"?>
<!DOCTYPE svg PUBLIC "-//W3C//DTD SVG 20010904//EN"
 "http://www.w3.org/TR/2001/REC-SVG-20010904/DTD/svg10.dtd">
<svg version="1.0" xmlns="http://www.w3.org/2000/svg"
 width="200.000000pt" height="200.000000pt" viewBox="0 0 200.000000 200.000000"
 preserveAspectRatio="xMidYMid meet">
<metadata>
Created by potrace 1.14, written by Peter Selinger 2001-2017
</metadata>
<g transform="translate(0.000000,200.000000) scale(0.100000,-0.100000)"
fill="#000000" stroke="none">
<path d="M1026 1680 c-58 -61 -106 -114 -106 -118 0 -4 49 -58 108 -120 l107
-113 45 45 44 46 -39 40 -39 40 29 0 c80 0 149 -41 181 -107 16 -35 18 -72 19
-410 l0 -371 -32 -16 c-44 -21 -85 -86 -90 -144 -5 -56 13 -104 57 -149 110
-112 305 -35 314 124 4 70 -49 160 -105 178 -17 6 -18 26 -21 398 -3 392 -3
392 -27 441 -51 103 -156 174 -264 179 -55 2 -58 6 -27 37 42 42 43 47 13 76
-60 61 -50 64 -167 -56z m454 -1200 c39 -39 16 -101 -39 -102 -41 -1 -61 18
-61 58 0 56 61 83 100 44z"/>
<path d="M501 1739 c-101 -40 -154 -166 -108 -255 19 -36 63 -81 88 -89 17 -6
18 -26 21 -398 l3 -392 25 -50 c58 -117 156 -175 315 -184 5 -1 -8 -18 -29
-40 l-38 -39 29 -28 c63 -63 52 -67 165 51 57 59 103 113 103 120 0 7 -46 63
-103 124 l-103 110 -47 -44 -46 -45 39 -40 39 -40 -37 0 c-42 0 -101 22 -130
48 -11 9 -28 35 -40 57 -19 38 -20 58 -22 400 0 198 3 368 7 378 5 9 14 17 21
17 17 0 61 47 81 87 70 139 -88 310 -233 252z m109 -134 c31 -38 1 -105 -47
-105 -35 0 -66 36 -58 68 4 15 11 33 17 39 15 18 73 16 88 -2z"/>
</g>
</svg>
